<mxfile host="app.diagrams.net" agent="Mozilla/5.0 (Windows NT 10.0; Win64; x64) AppleWebKit/537.36 (KHTML, like Gecko) Chrome/133.0.0.0 Safari/537.36 Edg/133.0.0.0" version="26.0.15">
  <diagram name="Page-1" id="1HQDX035JJTk_wcHytuP">
    <mxGraphModel dx="1349" dy="645" grid="1" gridSize="10" guides="1" tooltips="1" connect="1" arrows="1" fold="1" page="1" pageScale="1" pageWidth="850" pageHeight="1100" math="0" shadow="0">
      <root>
        <mxCell id="0" />
        <mxCell id="1" parent="0" />
        <mxCell id="N0m7FQqglsLiLhSbD2BI-2" value="" style="rounded=0;whiteSpace=wrap;html=1;" vertex="1" parent="1">
          <mxGeometry x="200" y="30" width="660" height="560" as="geometry" />
        </mxCell>
        <object label="Staff" id="N0m7FQqglsLiLhSbD2BI-3">
          <mxCell style="shape=umlActor;html=1;verticalLabelPosition=bottom;verticalAlign=top;align=center;" vertex="1" parent="1">
            <mxGeometry x="110" y="110" width="30" height="60" as="geometry" />
          </mxCell>
        </object>
        <mxCell id="N0m7FQqglsLiLhSbD2BI-4" value="IT Support" style="shape=umlActor;html=1;verticalLabelPosition=bottom;verticalAlign=top;align=center;" vertex="1" parent="1">
          <mxGeometry x="960" y="300" width="30" height="60" as="geometry" />
        </mxCell>
        <mxCell id="N0m7FQqglsLiLhSbD2BI-6" value="Admin" style="shape=umlActor;html=1;verticalLabelPosition=bottom;verticalAlign=top;align=center;" vertex="1" parent="1">
          <mxGeometry x="890" y="110" width="30" height="60" as="geometry" />
        </mxCell>
        <mxCell id="N0m7FQqglsLiLhSbD2BI-7" value="View shared calendars" style="ellipse;whiteSpace=wrap;html=1;" vertex="1" parent="1">
          <mxGeometry x="240" y="270" width="140" height="70" as="geometry" />
        </mxCell>
        <mxCell id="N0m7FQqglsLiLhSbD2BI-8" value="Schedule Meetings" style="ellipse;whiteSpace=wrap;html=1;" vertex="1" parent="1">
          <mxGeometry x="250" y="360" width="140" height="70" as="geometry" />
        </mxCell>
        <mxCell id="N0m7FQqglsLiLhSbD2BI-9" value="Restore the account when id or password is lost&amp;nbsp;" style="ellipse;whiteSpace=wrap;html=1;" vertex="1" parent="1">
          <mxGeometry x="490" y="380" width="140" height="70" as="geometry" />
        </mxCell>
        <mxCell id="N0m7FQqglsLiLhSbD2BI-10" value="Backup and Restore Data" style="ellipse;whiteSpace=wrap;html=1;" vertex="1" parent="1">
          <mxGeometry x="650" y="410" width="120" height="70" as="geometry" />
        </mxCell>
        <mxCell id="N0m7FQqglsLiLhSbD2BI-11" value="View Faculty Info" style="ellipse;whiteSpace=wrap;html=1;" vertex="1" parent="1">
          <mxGeometry x="220" y="490" width="140" height="70" as="geometry" />
        </mxCell>
        <mxCell id="N0m7FQqglsLiLhSbD2BI-12" value="Authenticate" style="ellipse;whiteSpace=wrap;html=1;" vertex="1" parent="1">
          <mxGeometry x="230" y="105" width="140" height="70" as="geometry" />
        </mxCell>
        <mxCell id="N0m7FQqglsLiLhSbD2BI-13" value="Add events" style="ellipse;whiteSpace=wrap;html=1;" vertex="1" parent="1">
          <mxGeometry x="380" y="460" width="140" height="70" as="geometry" />
        </mxCell>
        <mxCell id="N0m7FQqglsLiLhSbD2BI-14" value="" style="edgeStyle=none;html=1;endArrow=none;verticalAlign=bottom;rounded=0;" edge="1" parent="1" target="N0m7FQqglsLiLhSbD2BI-7">
          <mxGeometry width="160" relative="1" as="geometry">
            <mxPoint x="130" y="139.5" as="sourcePoint" />
            <mxPoint x="290" y="139.5" as="targetPoint" />
          </mxGeometry>
        </mxCell>
        <mxCell id="N0m7FQqglsLiLhSbD2BI-15" value="" style="edgeStyle=none;html=1;endArrow=none;verticalAlign=bottom;rounded=0;" edge="1" parent="1">
          <mxGeometry width="160" relative="1" as="geometry">
            <mxPoint x="130" y="139.5" as="sourcePoint" />
            <mxPoint x="230" y="140" as="targetPoint" />
          </mxGeometry>
        </mxCell>
        <mxCell id="N0m7FQqglsLiLhSbD2BI-16" value="" style="edgeStyle=none;html=1;endArrow=none;verticalAlign=bottom;rounded=0;exitX=1;exitY=0.5;exitDx=0;exitDy=0;" edge="1" parent="1" source="N0m7FQqglsLiLhSbD2BI-12">
          <mxGeometry width="160" relative="1" as="geometry">
            <mxPoint x="740" y="139.5" as="sourcePoint" />
            <mxPoint x="900" y="139.5" as="targetPoint" />
          </mxGeometry>
        </mxCell>
        <mxCell id="N0m7FQqglsLiLhSbD2BI-17" value="" style="edgeStyle=none;html=1;endArrow=none;verticalAlign=bottom;rounded=0;entryX=0.5;entryY=0.5;entryDx=0;entryDy=0;entryPerimeter=0;exitX=1;exitY=0.5;exitDx=0;exitDy=0;" edge="1" parent="1" source="N0m7FQqglsLiLhSbD2BI-13" target="N0m7FQqglsLiLhSbD2BI-34">
          <mxGeometry width="160" relative="1" as="geometry">
            <mxPoint x="750" y="190" as="sourcePoint" />
            <mxPoint x="910" y="190" as="targetPoint" />
          </mxGeometry>
        </mxCell>
        <mxCell id="N0m7FQqglsLiLhSbD2BI-18" value="" style="edgeStyle=none;html=1;endArrow=none;verticalAlign=bottom;rounded=0;exitX=1;exitY=0;exitDx=0;exitDy=0;" edge="1" parent="1" source="N0m7FQqglsLiLhSbD2BI-9">
          <mxGeometry width="160" relative="1" as="geometry">
            <mxPoint x="710" y="290" as="sourcePoint" />
            <mxPoint x="903" y="140" as="targetPoint" />
          </mxGeometry>
        </mxCell>
        <mxCell id="N0m7FQqglsLiLhSbD2BI-21" value="" style="edgeStyle=none;html=1;endArrow=none;verticalAlign=bottom;rounded=0;entryX=0;entryY=0;entryDx=0;entryDy=0;" edge="1" parent="1" target="N0m7FQqglsLiLhSbD2BI-8">
          <mxGeometry width="160" relative="1" as="geometry">
            <mxPoint x="130" y="140" as="sourcePoint" />
            <mxPoint x="600" y="360" as="targetPoint" />
          </mxGeometry>
        </mxCell>
        <mxCell id="N0m7FQqglsLiLhSbD2BI-22" value="" style="edgeStyle=none;html=1;endArrow=none;verticalAlign=bottom;rounded=0;entryX=0.5;entryY=0.5;entryDx=0;entryDy=0;entryPerimeter=0;exitX=1;exitY=0.5;exitDx=0;exitDy=0;" edge="1" parent="1" source="N0m7FQqglsLiLhSbD2BI-9" target="N0m7FQqglsLiLhSbD2BI-4">
          <mxGeometry width="160" relative="1" as="geometry">
            <mxPoint x="730" y="470" as="sourcePoint" />
            <mxPoint x="890" y="470" as="targetPoint" />
          </mxGeometry>
        </mxCell>
        <mxCell id="N0m7FQqglsLiLhSbD2BI-23" value="" style="edgeStyle=none;html=1;endArrow=none;verticalAlign=bottom;rounded=0;" edge="1" parent="1" source="N0m7FQqglsLiLhSbD2BI-10">
          <mxGeometry width="160" relative="1" as="geometry">
            <mxPoint x="720" y="470" as="sourcePoint" />
            <mxPoint x="970" y="330" as="targetPoint" />
          </mxGeometry>
        </mxCell>
        <mxCell id="N0m7FQqglsLiLhSbD2BI-24" value="Invalid Username or Password" style="ellipse;whiteSpace=wrap;html=1;" vertex="1" parent="1">
          <mxGeometry x="570" y="50" width="120" height="80" as="geometry" />
        </mxCell>
        <mxCell id="N0m7FQqglsLiLhSbD2BI-25" value="" style="edgeStyle=none;html=1;endArrow=none;verticalAlign=bottom;rounded=0;exitX=0.5;exitY=0.5;exitDx=0;exitDy=0;exitPerimeter=0;" edge="1" parent="1" source="N0m7FQqglsLiLhSbD2BI-6" target="N0m7FQqglsLiLhSbD2BI-24">
          <mxGeometry width="160" relative="1" as="geometry">
            <mxPoint x="860" y="150" as="sourcePoint" />
            <mxPoint x="1015" y="230" as="targetPoint" />
          </mxGeometry>
        </mxCell>
        <mxCell id="N0m7FQqglsLiLhSbD2BI-27" value="Remove events" style="ellipse;whiteSpace=wrap;html=1;" vertex="1" parent="1">
          <mxGeometry x="540" y="515" width="140" height="70" as="geometry" />
        </mxCell>
        <mxCell id="N0m7FQqglsLiLhSbD2BI-28" value="" style="edgeStyle=none;html=1;endArrow=none;verticalAlign=bottom;rounded=0;exitX=0.5;exitY=0.5;exitDx=0;exitDy=0;exitPerimeter=0;entryX=1;entryY=0.5;entryDx=0;entryDy=0;" edge="1" parent="1" source="N0m7FQqglsLiLhSbD2BI-34" target="N0m7FQqglsLiLhSbD2BI-27">
          <mxGeometry width="160" relative="1" as="geometry">
            <mxPoint x="950" y="290" as="sourcePoint" />
            <mxPoint x="990" y="269" as="targetPoint" />
          </mxGeometry>
        </mxCell>
        <mxCell id="N0m7FQqglsLiLhSbD2BI-29" value="&amp;lt;&amp;lt;include&amp;gt;&amp;gt;" style="edgeStyle=none;html=1;endArrow=open;verticalAlign=bottom;dashed=1;labelBackgroundColor=none;rounded=0;entryX=0;entryY=0.5;entryDx=0;entryDy=0;exitX=1;exitY=0.5;exitDx=0;exitDy=0;" edge="1" parent="1" source="N0m7FQqglsLiLhSbD2BI-12" target="N0m7FQqglsLiLhSbD2BI-24">
          <mxGeometry width="160" relative="1" as="geometry">
            <mxPoint x="370" y="140" as="sourcePoint" />
            <mxPoint x="630" y="280" as="targetPoint" />
          </mxGeometry>
        </mxCell>
        <mxCell id="N0m7FQqglsLiLhSbD2BI-33" value="MU Staff Calender" style="shape=rect;html=1;verticalAlign=top;fontStyle=1;whiteSpace=wrap;align=center;" vertex="1" parent="1">
          <mxGeometry x="435" y="20" width="120" height="60" as="geometry" />
        </mxCell>
        <mxCell id="N0m7FQqglsLiLhSbD2BI-34" value="Calendar Database" style="shape=umlActor;verticalLabelPosition=bottom;verticalAlign=top;html=1;outlineConnect=0;" vertex="1" parent="1">
          <mxGeometry x="910" y="470" width="30" height="60" as="geometry" />
        </mxCell>
        <mxCell id="N0m7FQqglsLiLhSbD2BI-44" value="&amp;lt;&amp;lt;include&amp;gt;&amp;gt;" style="edgeStyle=none;html=1;endArrow=open;verticalAlign=bottom;dashed=1;labelBackgroundColor=none;rounded=0;exitX=0.5;exitY=1;exitDx=0;exitDy=0;" edge="1" parent="1" source="N0m7FQqglsLiLhSbD2BI-8" target="N0m7FQqglsLiLhSbD2BI-11">
          <mxGeometry width="160" relative="1" as="geometry">
            <mxPoint x="561" y="340" as="sourcePoint" />
            <mxPoint x="340" y="365" as="targetPoint" />
          </mxGeometry>
        </mxCell>
        <mxCell id="N0m7FQqglsLiLhSbD2BI-45" value="Sync with academic calendar&amp;nbsp;" style="ellipse;whiteSpace=wrap;html=1;" vertex="1" parent="1">
          <mxGeometry x="390" y="180" width="140" height="80" as="geometry" />
        </mxCell>
        <mxCell id="N0m7FQqglsLiLhSbD2BI-46" value="" style="endArrow=none;html=1;rounded=0;entryX=0;entryY=0.5;entryDx=0;entryDy=0;" edge="1" parent="1" target="N0m7FQqglsLiLhSbD2BI-45">
          <mxGeometry width="50" height="50" relative="1" as="geometry">
            <mxPoint x="130" y="140" as="sourcePoint" />
            <mxPoint x="450" y="300" as="targetPoint" />
          </mxGeometry>
        </mxCell>
        <mxCell id="N0m7FQqglsLiLhSbD2BI-47" value="Manage users" style="ellipse;whiteSpace=wrap;html=1;" vertex="1" parent="1">
          <mxGeometry x="620" y="150" width="100" height="50" as="geometry" />
        </mxCell>
        <mxCell id="N0m7FQqglsLiLhSbD2BI-48" value="" style="endArrow=none;html=1;rounded=0;exitX=1;exitY=0.5;exitDx=0;exitDy=0;" edge="1" parent="1" source="N0m7FQqglsLiLhSbD2BI-47">
          <mxGeometry width="50" height="50" relative="1" as="geometry">
            <mxPoint x="730" y="210" as="sourcePoint" />
            <mxPoint x="900" y="140" as="targetPoint" />
          </mxGeometry>
        </mxCell>
        <mxCell id="N0m7FQqglsLiLhSbD2BI-50" value="Register New User" style="ellipse;whiteSpace=wrap;html=1;" vertex="1" parent="1">
          <mxGeometry x="450" y="270" width="100" height="70" as="geometry" />
        </mxCell>
        <mxCell id="N0m7FQqglsLiLhSbD2BI-51" value="Remove User" style="ellipse;whiteSpace=wrap;html=1;" vertex="1" parent="1">
          <mxGeometry x="610" y="260" width="90" height="70" as="geometry" />
        </mxCell>
        <mxCell id="N0m7FQqglsLiLhSbD2BI-52" value="&amp;lt;&amp;lt;include&amp;gt;&amp;gt;" style="edgeStyle=none;html=1;endArrow=open;verticalAlign=bottom;dashed=1;labelBackgroundColor=none;rounded=0;entryX=0.888;entryY=0.263;entryDx=0;entryDy=0;entryPerimeter=0;" edge="1" parent="1" target="N0m7FQqglsLiLhSbD2BI-50">
          <mxGeometry width="160" relative="1" as="geometry">
            <mxPoint x="680" y="200" as="sourcePoint" />
            <mxPoint x="570" y="270" as="targetPoint" />
          </mxGeometry>
        </mxCell>
        <mxCell id="N0m7FQqglsLiLhSbD2BI-53" value="&amp;lt;&amp;lt;include&amp;gt;&amp;gt;" style="edgeStyle=none;html=1;endArrow=open;verticalAlign=bottom;dashed=1;labelBackgroundColor=none;rounded=0;exitX=0.5;exitY=1;exitDx=0;exitDy=0;" edge="1" parent="1">
          <mxGeometry width="160" relative="1" as="geometry">
            <mxPoint x="680" y="200" as="sourcePoint" />
            <mxPoint x="661" y="260" as="targetPoint" />
          </mxGeometry>
        </mxCell>
      </root>
    </mxGraphModel>
  </diagram>
</mxfile>
